<mxfile host="65bd71144e">
    <diagram id="KKcilhX_-PsfVYI2Bg5r" name="Page-1">
        <mxGraphModel dx="818" dy="394" grid="1" gridSize="10" guides="1" tooltips="1" connect="1" arrows="1" fold="1" page="1" pageScale="1" pageWidth="827" pageHeight="1169" math="0" shadow="0">
            <root>
                <mxCell id="0"/>
                <mxCell id="1" parent="0"/>
                <mxCell id="18" value="&lt;b&gt;cycle(A)&lt;/b&gt;" style="text;html=1;strokeColor=none;fillColor=none;align=center;verticalAlign=middle;whiteSpace=wrap;rounded=0;shadow=0;glass=0;sketch=1;fontFamily=Courier New;fontSize=20;" parent="1" vertex="1">
                    <mxGeometry x="360" y="20" width="180" height="30" as="geometry"/>
                </mxCell>
                <mxCell id="3" value="&lt;font style=&quot;font-size: 20px&quot;&gt;a0&lt;/font&gt;" style="rounded=1;whiteSpace=wrap;html=1;fontFamily=Courier New;fontSize=24;strokeWidth=3;glass=0;shadow=0;sketch=1;strokeColor=#CCCCCC;" parent="1" vertex="1">
                    <mxGeometry x="370" y="80" width="40" height="40" as="geometry"/>
                </mxCell>
                <mxCell id="4" value="&lt;font style=&quot;font-size: 20px&quot;&gt;a1&lt;/font&gt;" style="rounded=1;whiteSpace=wrap;html=1;fontFamily=Courier New;fontSize=24;strokeWidth=3;glass=0;shadow=0;sketch=1;strokeColor=#CCCCCC;" parent="1" vertex="1">
                    <mxGeometry x="430" y="80" width="40" height="40" as="geometry"/>
                </mxCell>
                <mxCell id="5" value="&lt;font style=&quot;font-size: 20px&quot;&gt;a2&lt;/font&gt;" style="rounded=1;whiteSpace=wrap;html=1;fontFamily=Courier New;fontSize=24;strokeWidth=3;glass=0;shadow=0;sketch=1;strokeColor=#CCCCCC;" parent="1" vertex="1">
                    <mxGeometry x="490" y="80" width="40" height="40" as="geometry"/>
                </mxCell>
                <mxCell id="13" value="" style="rounded=0;whiteSpace=wrap;html=1;shadow=0;glass=0;sketch=0;fontFamily=Courier New;fontSize=20;strokeColor=#000066;strokeWidth=1;fillColor=none;opacity=50;" parent="1" vertex="1">
                    <mxGeometry x="360" y="70" width="180" height="60" as="geometry"/>
                </mxCell>
                <mxCell id="16" value="" style="curved=1;endArrow=classic;html=1;fontFamily=Courier New;fontSize=20;exitX=1;exitY=0.5;exitDx=0;exitDy=0;entryX=0;entryY=0.5;entryDx=0;entryDy=0;" parent="1" source="13" target="13" edge="1">
                    <mxGeometry width="50" height="50" relative="1" as="geometry">
                        <mxPoint x="620" y="220" as="sourcePoint"/>
                        <mxPoint x="570" y="190" as="targetPoint"/>
                        <Array as="points">
                            <mxPoint x="600" y="160"/>
                            <mxPoint x="300" y="160"/>
                        </Array>
                    </mxGeometry>
                </mxCell>
            </root>
        </mxGraphModel>
    </diagram>
</mxfile>